<?xml version="1.0" standalone="no"?>
<!DOCTYPE svg PUBLIC "-//W3C//DTD SVG 20010904//EN"
 "http://www.w3.org/TR/2001/REC-SVG-20010904/DTD/svg10.dtd">
<svg version="1.0" xmlns="http://www.w3.org/2000/svg"
 width="260.000000pt" height="260.000000pt" viewBox="0 0 260.000000 260.000000"
 preserveAspectRatio="xMidYMid meet">
<metadata>
Created by potrace 1.11, written by Peter Selinger 2001-2013
</metadata>
<g transform="translate(0.000000,260.000000) scale(0.100000,-0.100000)"
fill="#000000" stroke="none">
<path d="M1158 2595 c-2 -2 -20 -5 -41 -7 -20 -1 -37 -5 -37 -8 0 -3 -12 -5
-27 -5 -16 1 -32 -2 -38 -6 -5 -3 -28 -10 -50 -14 -22 -4 -44 -11 -50 -15 -5
-5 -13 -9 -18 -9 -16 -1 -63 -14 -72 -20 -5 -3 -12 -6 -15 -6 -15 -2 -149 -71
-198 -102 -140 -88 -289 -229 -369 -347 -15 -22 -30 -43 -33 -46 -40 -40 -159
-321 -176 -415 -1 -5 -3 -12 -4 -15 -15 -41 -24 -140 -25 -270 0 -159 7 -225
40 -350 11 -44 8 -35 48 -140 57 -153 168 -320 293 -445 46 -44 117 -105 143
-119 8 -5 24 -17 34 -26 9 -9 30 -23 45 -31 15 -8 29 -16 32 -19 3 -3 43 -24
90 -47 102 -50 195 -83 280 -99 14 -2 32 -7 40 -10 64 -26 399 -25 510 1 14 3
36 8 50 11 47 10 175 57 250 92 208 98 371 240 527 458 34 47 115 214 142 294
37 110 41 123 35 131 -3 5 -1 9 4 9 5 0 8 14 7 30 -1 17 1 33 4 35 11 6 15 64
15 215 0 134 -3 171 -19 255 -63 321 -268 635 -529 807 -22 15 -47 32 -53 38
-27 23 -212 109 -278 130 -38 13 -77 25 -85 28 -20 7 -27 8 -75 17 -22 4 -51
9 -65 12 -32 6 -326 13 -332 8z m232 -109 c71 -5 147 -18 240 -41 63 -16 202
-74 208 -87 2 -5 10 -8 18 -8 12 0 119 -64 134 -80 3 -3 21 -17 40 -30 50 -34
187 -177 241 -252 116 -160 203 -397 215 -588 6 -84 1 -275 -6 -275 -1 0 -4
-13 -6 -30 -8 -52 -57 -220 -66 -226 -5 -3 -8 -10 -6 -15 2 -9 -46 -109 -85
-174 -54 -91 -186 -241 -278 -315 -46 -37 -152 -105 -165 -105 -7 0 -14 -3
-16 -7 -2 -7 -69 -42 -88 -48 -3 -1 -18 -7 -35 -14 -123 -51 -281 -80 -435
-80 -126 -1 -204 10 -309 40 -36 11 -73 21 -81 23 -75 20 -267 124 -341 185
-40 32 -186 179 -206 206 -64 87 -93 131 -93 142 0 6 -4 13 -8 15 -10 4 -60
109 -84 178 -20 59 -42 141 -54 205 -10 53 -11 328 -1 385 14 77 40 173 58
217 10 22 15 44 12 47 -4 3 -1 6 5 6 7 0 11 3 10 8 -5 24 109 217 160 268 6 7
12 16 12 19 0 8 119 127 170 170 76 64 272 180 284 167 3 -3 6 0 6 6 0 7 3 11
8 10 4 -1 45 10 91 25 46 15 100 30 120 33 20 3 38 7 41 9 3 2 44 7 90 10 47
4 87 9 88 10 2 2 9 2 15 0 7 -3 50 -7 97 -9z"/>
<path d="M1216 2442 c-2 -1 -23 -5 -47 -7 -24 -3 -55 -7 -69 -10 -14 -4 -36
-8 -50 -11 -52 -11 -135 -37 -147 -46 -7 -6 -13 -8 -13 -4 0 10 -158 -72 -235
-122 -65 -43 -265 -233 -265 -252 0 -5 -6 -15 -13 -22 -51 -54 -146 -244 -173
-348 -38 -146 -45 -195 -46 -325 -1 -75 8 -173 19 -219 2 -12 6 -30 8 -41 9
-46 14 -65 25 -84 6 -12 9 -21 6 -21 -13 0 70 -176 123 -260 55 -88 181 -224
276 -296 35 -27 211 -135 218 -133 4 1 41 -13 72 -26 28 -12 99 -34 135 -41 8
-2 26 -6 40 -9 133 -28 347 -25 475 6 22 5 50 12 62 14 12 3 33 9 47 15 13 5
27 6 30 3 3 -4 6 -1 6 5 0 7 6 12 13 12 12 0 165 74 212 103 81 49 217 171
273 244 93 120 150 224 196 351 14 39 26 74 26 77 0 3 0 6 1 8 0 1 2 9 4 17
42 193 40 391 -7 565 -6 22 -11 45 -13 50 -1 6 -7 23 -13 38 -7 15 -15 39 -18
53 -3 13 -10 27 -15 30 -5 3 -9 14 -9 24 0 10 -3 20 -7 22 -5 2 -17 21 -28 43
-53 108 -232 314 -322 372 -15 9 -30 20 -33 23 -10 12 -156 93 -167 93 -7 0
-13 4 -13 8 0 3 -10 10 -22 14 -13 4 -25 8 -28 9 -3 1 -23 8 -45 15 -22 7 -47
15 -55 17 -8 3 -17 6 -20 6 -3 1 -21 5 -40 10 -52 13 -70 16 -125 24 -51 6
-224 11 -229 6z m189 -66 c71 -6 116 -13 147 -22 10 -3 30 -7 44 -10 15 -3 37
-10 48 -16 12 -6 21 -10 21 -9 0 4 38 -10 85 -32 25 -11 48 -20 53 -19 4 1 7
-2 7 -8 0 -5 5 -10 10 -10 13 0 117 -65 137 -86 8 -8 18 -14 22 -14 17 0 170
-163 219 -232 95 -139 170 -328 188 -475 10 -84 11 -220 2 -278 -5 -27 -9 -61
-11 -75 -1 -14 -6 -31 -11 -38 -4 -7 -6 -16 -3 -18 6 -7 -43 -146 -75 -213
-24 -49 -99 -170 -133 -211 -115 -142 -308 -281 -465 -335 -3 -1 -13 -5 -22
-8 -60 -23 -43 -18 -158 -42 -105 -22 -283 -25 -370 -7 -36 7 -74 14 -85 16
-11 1 -27 5 -35 8 -8 3 -44 16 -80 28 -261 90 -488 292 -611 545 -24 50 -44
92 -45 95 0 3 -9 32 -19 65 -10 33 -19 65 -20 70 -1 6 -3 12 -4 15 -2 3 -4 16
-6 30 -2 14 -6 45 -9 70 -8 50 -9 224 -3 255 3 11 8 42 11 68 27 198 169 461
327 604 62 56 136 113 148 113 6 0 11 3 11 8 0 4 9 12 19 17 88 45 176 88 185
90 6 1 19 5 28 9 9 4 22 9 30 10 7 1 31 8 53 14 62 17 94 22 185 29 47 3 87 7
88 9 2 1 9 1 15 -1 7 -2 44 -6 82 -9z"/>
<path d="M1198 2334 c-2 -2 -21 -6 -42 -9 -94 -15 -261 -94 -333 -157 -60 -52
-133 -131 -139 -150 -3 -10 -9 -18 -13 -18 -12 0 -96 -172 -107 -220 -40 -168
-38 -324 8 -475 12 -38 23 -74 24 -80 9 -39 82 -190 137 -285 58 -98 224 -336
270 -385 11 -11 31 -36 45 -55 15 -19 29 -37 32 -40 3 -3 30 -34 60 -70 60
-71 109 -119 125 -121 109 -16 129 1 369 300 107 135 286 395 286 418 0 2 12
25 27 51 15 25 28 51 30 57 1 5 15 44 32 85 38 94 44 111 47 130 2 8 7 33 13
55 39 157 26 355 -32 483 -12 26 -21 49 -22 52 0 6 -55 100 -69 119 -31 41
-163 171 -173 171 -7 0 -13 4 -13 10 0 5 -11 12 -25 16 -14 3 -25 9 -25 13 0
9 -99 54 -155 71 -22 7 -51 17 -65 23 -24 9 -284 20 -292 11z m166 -438 c114
-16 227 -112 258 -220 63 -220 -98 -430 -323 -422 -117 4 -219 71 -277 181
-23 44 -27 61 -26 140 0 50 5 101 11 115 6 14 10 27 10 30 -2 11 73 93 117
128 27 22 160 65 176 57 3 -2 27 -6 54 -9z"/>
</g>
</svg>
